<svg width="52" height="52" viewBox="0 0 52 52" fill="none" xmlns="http://www.w3.org/2000/svg">
<circle cx="26" cy="26" r="26" fill="black"/>
<path d="M41.8889 24.0139C41.8889 28.7546 40.2149 33.3012 37.2351 36.6534C34.2554 40.0056 30.214 41.8889 26 41.8889C21.786 41.8889 17.7446 40.0056 14.7648 36.6534C11.7851 33.3012 10.1111 28.7546 10.1111 24.0139L26 24.0139H41.8889Z" fill="white"/>
<path d="M36.5926 10.1111C36.5926 13.7983 35.4766 17.3346 33.4901 19.9418C31.5036 22.5491 28.8093 24.0139 26 24.0139C23.1906 24.0139 20.4964 22.5491 18.5099 19.9418C16.5234 17.3346 15.4074 13.7983 15.4074 10.1111L36.5926 10.1111Z" fill="white"/>
</svg>
