<svg width="36" height="36" viewBox="0 0 36 36" fill="none" xmlns="http://www.w3.org/2000/svg">
<circle cx="18" cy="18" r="18" fill="white"/>
<path d="M29 16.625C29 19.9071 27.8411 23.0547 25.7782 25.3754C23.7153 27.6962 20.9174 29 18 29C15.0826 29 12.2847 27.6962 10.2218 25.3754C8.15893 23.0547 7 19.9071 7 16.625L18 16.625H29Z" fill="black"/>
<path d="M25.3333 7C25.3333 9.55271 24.5607 12.0009 23.1855 13.8059C21.8102 15.6109 19.9449 16.625 18 16.625C16.0551 16.625 14.1898 15.6109 12.8146 13.8059C11.4393 12.0009 10.6667 9.55271 10.6667 7L25.3333 7Z" fill="black"/>
</svg>
