<svg width="36" height="38" viewBox="0 0 36 38" fill="none" xmlns="http://www.w3.org/2000/svg">
<circle cx="18" cy="20" r="18" fill="white"/>
<ellipse cx="18.5" cy="26.5" rx="14.5" ry="3.5" fill="black"/>
<path d="M8 24L18 2L29 24H8Z" fill="black" stroke="black"/>
<path fill-rule="evenodd" clip-rule="evenodd" d="M16.3776 17.154C15.8714 17.2407 15.418 17.5189 15.1113 17.9307C14.8046 18.3426 14.6681 18.8567 14.7301 19.3665L14.7386 19.4365C14.7533 19.5577 14.8119 19.6692 14.9033 19.7502C14.9946 19.8312 15.1125 19.8759 15.2346 19.876H16.1166L14.6336 26.7975C14.6127 26.8947 14.6314 26.9963 14.6855 27.0798C14.7395 27.1633 14.8245 27.2219 14.9218 27.2427C15.0191 27.2635 15.1206 27.2449 15.2041 27.1908C15.2876 27.1368 15.3462 27.0517 15.3671 26.9545L15.8391 24.751H20.1611L20.6336 26.9545C20.657 27.049 20.7162 27.1308 20.7988 27.1824C20.8814 27.234 20.9809 27.2515 21.0761 27.2311C21.1714 27.2107 21.2549 27.154 21.3091 27.0731C21.3633 26.9922 21.3839 26.8933 21.3666 26.7975L19.8836 19.876H20.7656C20.8878 19.876 21.0058 19.8313 21.0973 19.7502C21.1888 19.6691 21.2474 19.5573 21.2621 19.436L21.2706 19.3665C21.3325 18.8567 21.196 18.3426 20.8893 17.9307C20.5826 17.5189 20.1292 17.2407 19.6231 17.154L19.4366 17.122C18.486 16.959 17.5146 16.959 16.5641 17.122L16.3776 17.154ZM19.1251 19.876H16.8751C16.8751 19.9024 16.8725 19.9287 16.8671 19.9545L15.9996 24.001H20.0006L19.1336 19.9545C19.128 19.9287 19.1251 19.9024 19.1251 19.876Z" fill="#F8F8F8"/>
</svg>
